<?xml version="1.0" encoding="UTF-8"?>
<svg version="1.1" xmlns="http://www.w3.org/2000/svg" width="512" height="512">
<path d="M0 0 C4.6715296 3.30769378 8.7550461 7.26777556 12 12 C12 12.66 12 13.32 12 14 C13.23302856 13.96072388 13.23302856 13.96072388 14.4909668 13.9206543 C18.22294938 13.8165856 21.9546266 13.75163872 25.6875 13.6875 C26.98107422 13.64560547 28.27464844 13.60371094 29.60742188 13.56054688 C31.47817383 13.53637695 31.47817383 13.53637695 33.38671875 13.51171875 C35.10701294 13.47244263 35.10701294 13.47244263 36.86206055 13.43237305 C40.97127812 14.17569607 42.45541914 15.75995396 45 19 C45 19.99 45 20.98 45 22 C46.12905762 21.97905273 47.25811523 21.95810547 48.42138672 21.93652344 C52.65188676 21.86355532 56.88233237 21.81799588 61.11328125 21.78027344 C62.93661892 21.76028636 64.75989356 21.73308714 66.58300781 21.69824219 C88.92890752 21.282163 88.92890752 21.282163 95.91357422 27.78027344 C102.97423444 35.43421166 103.14960769 43.39800333 103.13371277 53.38644409 C103.13597833 54.43131552 103.13824388 55.47618695 103.14057809 56.55272114 C103.14690723 60.05322508 103.14608942 63.55369019 103.14526367 67.05419922 C103.14825582 69.56424001 103.15165848 72.07428034 103.15544128 74.58432007 C103.16336135 80.69429569 103.16649567 86.80425709 103.16705366 92.91423737 C103.16752925 97.88160931 103.16958616 102.84897809 103.17275429 107.81634903 C103.18155782 121.90678372 103.18617409 135.9972108 103.18542381 150.08764826 C103.18538386 150.84682492 103.1853439 151.60600158 103.18530273 152.38818359 C103.18526185 153.14828948 103.18522097 153.90839537 103.18517885 154.69153477 C103.18477237 167.01096136 103.19434318 179.33035739 103.2084411 191.64977513 C103.22281009 204.30614478 103.22971101 216.96249952 103.22884732 229.61887753 C103.22851556 236.72172978 103.23125386 243.82454998 103.24202538 250.92739487 C103.25209034 257.60699691 103.25178969 264.28652005 103.24450874 270.9661293 C103.24346218 273.41708729 103.24583002 275.86804948 103.2518692 278.31900024 C103.25958176 281.66594283 103.254949 285.01265112 103.24723816 288.35958862 C103.25238172 289.32827594 103.25752529 290.29696325 103.26282471 291.29500473 C103.22104982 299.50662472 102.29901241 306.37623449 97 313 C90.67641287 319.04864855 85.19440474 320.30203369 76.63237 320.26742554 C75.80463241 320.27195665 74.97689482 320.27648776 74.12407428 320.28115618 C71.35829374 320.2937878 68.59271044 320.29218061 65.8269043 320.29052734 C63.84064481 320.29651337 61.85438765 320.30331908 59.86813354 320.31088257 C54.47754814 320.32854229 49.08702624 320.33323794 43.69641471 320.33451414 C40.32701505 320.33593632 36.95763151 320.34020719 33.58823586 320.34550858 C21.82907716 320.36400881 10.06996379 320.3721792 -1.68920898 320.37060547 C-12.64326738 320.36940409 -23.59712873 320.39050574 -34.55113727 320.4220928 C-43.96194614 320.44826096 -53.37269069 320.45897253 -62.78353566 320.45769465 C-68.40144382 320.45718518 -74.01917686 320.46286053 -79.63704872 320.48405075 C-84.9222418 320.50344208 -90.20709285 320.50355131 -95.49229813 320.48901749 C-97.42843438 320.48692941 -99.36459209 320.49163018 -101.3006916 320.5037384 C-122.18702778 320.62586597 -122.18702778 320.62586597 -128.85132313 314.22064781 C-132.73493048 310.0078008 -135.24703793 306.20782137 -135.25726891 300.36031723 C-135.26694224 298.9606714 -135.26694224 298.9606714 -135.276811 297.53274989 C-135.2737138 296.51097502 -135.2706166 295.48920015 -135.26742554 294.4364624 C-135.27195665 293.34838075 -135.27648776 292.2602991 -135.28115618 291.13924527 C-135.29385179 287.48048275 -135.29217646 283.8218681 -135.29052734 280.16308594 C-135.29650941 277.54496569 -135.30331421 274.92684722 -135.31088257 272.30873108 C-135.32749948 265.92709635 -135.33299245 259.54549857 -135.33410732 253.16384402 C-135.33505761 247.97569179 -135.33916696 242.78755175 -135.34550858 237.59940338 C-135.36312404 222.88843501 -135.37234715 208.17749582 -135.37084763 193.46651682 C-135.37076772 192.6733524 -135.3706878 191.88018799 -135.37060547 191.06298828 C-135.37052371 190.26885463 -135.37044195 189.47472097 -135.37035771 188.65652266 C-135.36954505 175.79051023 -135.38867668 162.92461495 -135.4168822 150.0586364 C-135.44561816 136.84635779 -135.45942206 123.6341363 -135.45769465 110.42182565 C-135.45703092 103.00479707 -135.46251548 95.58789123 -135.48405075 88.17089081 C-135.5041779 81.19413484 -135.50358149 74.21764207 -135.48901749 67.24087334 C-135.48692384 64.68026031 -135.4916632 62.1196312 -135.5037384 59.55904579 C-135.51915748 56.0628821 -135.50990349 52.56761631 -135.49447632 49.07147217 C-135.50476344 48.05862018 -135.51505057 47.0457682 -135.52564943 46.00222373 C-135.44952177 38.19272394 -133.75833253 32.82102191 -128.25 27.1875 C-121.48089273 22.63137011 -115.64492797 21.55525295 -107.6875 21.70703125 C-106.83317383 21.71127609 -105.97884766 21.71552094 -105.09863281 21.71989441 C-102.39875318 21.73654297 -99.69964989 21.77416777 -97 21.8125 C-95.15756295 21.82756477 -93.31511407 21.84125002 -91.47265625 21.85351562 C-86.98147661 21.88640094 -82.49086944 21.93808544 -78 22 C-77.731875 21.05125 -77.46375 20.1025 -77.1875 19.125 C-76 16 -76 16 -73 14 C-70.08911133 13.77294922 -70.08911133 13.77294922 -66.58203125 13.8046875 C-65.32841797 13.81113281 -64.07480469 13.81757812 -62.78320312 13.82421875 C-60.81770508 13.84935547 -60.81770508 13.84935547 -58.8125 13.875 C-57.47722013 13.88503361 -56.14193311 13.8941588 -54.80664062 13.90234375 C-51.53757985 13.92594708 -48.26887972 13.95887406 -45 14 C-44.55539429 12.82739624 -44.55539429 12.82739624 -44.10180664 11.63110352 C-41.5590488 5.55902259 -36.14668871 1.23306646 -30.25 -1.4375 C-20.01638943 -5.54198769 -9.84374261 -5.10084845 0 0 Z M-118 42 C-118.59486179 44.05895759 -118.59486179 44.05895759 -118.50057125 46.39004517 C-118.51038554 47.29288427 -118.52019983 48.19572338 -118.53031152 49.12592125 C-118.52070652 50.11900103 -118.51110151 51.1120808 -118.50120544 52.13525391 C-118.50673984 53.18925699 -118.51227424 54.24326008 -118.51797634 55.32920265 C-118.53164355 58.87855889 -118.51658024 62.42721933 -118.50170898 65.9765625 C-118.50548994 68.5139801 -118.51098812 71.05139565 -118.51808167 73.58880615 C-118.53062701 79.77580925 -118.52444401 85.96255218 -118.50940608 92.14954233 C-118.49256803 99.35054669 -118.49575345 106.55149998 -118.49950016 113.75251794 C-118.50538225 126.59872508 -118.49119356 139.44483429 -118.46655273 152.29101562 C-118.44263091 164.76370922 -118.43554801 177.23627196 -118.44604492 189.70898438 C-118.45744769 203.28242438 -118.45939215 216.85580382 -118.44494683 230.42924309 C-118.44342094 231.87590408 -118.44190059 233.32256507 -118.44038582 234.76922607 C-118.439628 235.48105942 -118.43887019 236.19289277 -118.43808941 236.92629683 C-118.43334161 241.94885953 -118.43520153 246.97139523 -118.43945122 251.99395752 C-118.44488509 258.75071093 -118.43416188 265.50725562 -118.41249657 272.26398468 C-118.40691452 274.74928422 -118.4064763 277.2346012 -118.41144943 279.71990204 C-118.41736966 283.10172118 -118.40495955 286.48297778 -118.38768005 289.86474609 C-118.3936901 290.85782587 -118.39970014 291.85090565 -118.40589231 292.87407875 C-118.39745237 293.77691786 -118.38901243 294.67975697 -118.38031673 295.60995483 C-118.3792876 296.39093222 -118.37825848 297.1719096 -118.37719816 297.97655296 C-117.89473605 300.56467939 -117.10178676 301.44759436 -115 303 C-112.31623922 303.29257293 -109.86483658 303.40041463 -107.18054199 303.3742218 C-106.3756356 303.37819621 -105.57072921 303.38217061 -104.74143171 303.38626546 C-102.03512559 303.39591613 -99.32933862 303.38405376 -96.62304688 303.37231445 C-94.68660791 303.37474151 -92.7501702 303.37845998 -90.81373596 303.38337708 C-85.54728461 303.39280154 -80.28101859 303.38334756 -75.01458168 303.37004495 C-69.51065662 303.35874981 -64.00674094 303.36283645 -58.50280762 303.36479187 C-49.25883954 303.36567546 -40.01494471 303.35458088 -30.77099609 303.33618164 C-20.07425386 303.31501304 -9.37761897 303.31150376 1.31913996 303.3177436 C11.59688393 303.32343272 21.87458999 303.31779693 32.15232849 303.30657005 C36.53186238 303.30191807 40.91137312 303.3010528 45.29090881 303.3031559 C50.44547502 303.30503565 55.59993154 303.29695905 60.75447273 303.2810955 C62.64957793 303.27684274 64.54469424 303.27600873 66.43980217 303.27878571 C69.02017029 303.28199393 71.60020787 303.27296018 74.18054199 303.26069641 C74.93627392 303.26447573 75.69200585 303.26825506 76.47063875 303.27214891 C80.1979498 303.24066004 81.81503067 303.12331289 85 301 C85.92734641 298.21796077 86.12829528 296.55019272 86.13701439 293.67801094 C86.14208893 292.79033881 86.14716347 291.90266669 86.15239179 290.9880954 C86.15313843 289.52386779 86.15313843 289.52386779 86.15390015 288.03005981 C86.1582824 286.99380207 86.16266465 285.95754432 86.1671797 284.88988483 C86.18058615 281.40070918 86.18675066 277.91155879 86.19287109 274.42236328 C86.20077043 271.92760096 86.20903928 269.43283979 86.21765137 266.93807983 C86.24162036 259.44054535 86.25679936 251.94301503 86.26971143 244.44545537 C86.27342347 242.32831438 86.27739667 240.21117405 86.2814641 238.09403372 C86.30669622 224.94943043 86.32875119 211.8048261 86.34119225 198.66020393 C86.34412197 195.61607993 86.34708363 192.57195596 86.35009766 189.52783203 C86.35084371 188.77122394 86.35158976 188.01461584 86.35235842 187.23508023 C86.36501894 174.97157727 86.3982523 162.70821907 86.43989949 150.44478382 C86.4822968 137.85745559 86.50588454 125.27020154 86.51111281 112.68280208 C86.514529 105.61400881 86.52630871 98.54544195 86.55921555 91.4767189 C86.59010745 84.82994133 86.59564535 78.18348743 86.58383179 71.53662491 C86.58361019 69.09407073 86.59198579 66.65149876 86.60948563 64.20900726 C86.6320423 60.88015898 86.62394394 57.55276123 86.60800171 54.22390747 C86.6218838 53.25221717 86.63576588 52.28052687 86.65006864 51.27939141 C86.59617669 46.7277721 86.47906715 44.64756357 83.70401955 40.89648247 C80.05610236 38.33799098 76.92830416 38.36631005 72.63671875 38.51171875 C71.44874443 38.52233086 71.44874443 38.52233086 70.23677063 38.53315735 C67.71936611 38.56103756 65.20422644 38.623758 62.6875 38.6875 C60.9759437 38.71259139 59.26435235 38.73540309 57.55273438 38.75585938 C53.36762346 38.81084253 49.18419504 38.89706582 45 39 C44.99589111 39.64026123 44.99178223 40.28052246 44.98754883 40.94018555 C44.95453962 43.85687905 44.88388974 46.77150384 44.8125 49.6875 C44.80379883 51.19860352 44.80379883 51.19860352 44.79492188 52.74023438 C44.76591797 53.71669922 44.73691406 54.69316406 44.70703125 55.69921875 C44.6913208 56.59471436 44.67561035 57.49020996 44.65942383 58.4128418 C43.67528389 62.27397874 42.17558208 63.5836436 39 66 C35.44468911 66.74607511 31.94432534 66.68319379 28.32226562 66.64697266 C27.24692062 66.65573425 26.17157562 66.66449585 25.06364441 66.67352295 C21.51076858 66.69552081 17.95913838 66.68096152 14.40625 66.6640625 C11.93672446 66.66743049 9.46720053 66.67228296 6.99768066 66.67855835 C1.8226747 66.68593026 -3.35189968 66.67521311 -8.52685547 66.65185547 C-15.16178489 66.62336846 -21.79570308 66.63977059 -28.4305954 66.66971779 C-33.52984238 66.68778158 -38.62884944 66.68203674 -43.72810364 66.66907883 C-46.1745465 66.66574232 -48.62101112 66.66984041 -51.06742859 66.68147659 C-54.48629491 66.69416923 -57.90352151 66.67482758 -61.32226562 66.64697266 C-62.334366 66.65709381 -63.34646637 66.66721497 -64.38923645 66.67764282 C-69.09699843 66.60654815 -71.28590542 66.54336716 -75.12614441 63.6212616 C-77.21250593 60.70273395 -77.64476784 59.24823334 -77.70703125 55.69921875 C-77.73603516 54.72275391 -77.76503906 53.74628906 -77.79492188 52.74023438 C-77.80072266 51.73283203 -77.80652344 50.72542969 -77.8125 49.6875 C-77.83763672 48.66076172 -77.86277344 47.63402344 -77.88867188 46.57617188 C-77.94741085 44.050396 -77.98378712 41.52634772 -78 39 C-83.05367833 38.92577077 -88.1070384 38.87136085 -93.16113281 38.83520508 C-94.87993905 38.82013067 -96.59870691 38.79966771 -98.31738281 38.77368164 C-100.78980997 38.73723835 -103.261728 38.72026042 -105.734375 38.70703125 C-106.88459137 38.68380547 -106.88459137 38.68380547 -108.05804443 38.66011047 C-112.41513509 38.65874009 -114.85701459 38.93272076 -118 42 Z " fill="#57A3FF" transform="translate(143,98)"/>
<path d="M0 0 C4.6715296 3.30769378 8.7550461 7.26777556 12 12 C12 12.66 12 13.32 12 14 C12.82725586 13.98428955 13.65451172 13.9685791 14.50683594 13.95239258 C18.25448777 13.89003696 22.00203045 13.85100654 25.75 13.8125 C27.05195313 13.78736328 28.35390625 13.76222656 29.6953125 13.73632812 C31.57089844 13.72182617 31.57089844 13.72182617 33.484375 13.70703125 C34.63647461 13.6913208 35.78857422 13.67561035 36.97558594 13.65942383 C40.35441233 14.03991001 41.70320975 14.51045552 44 17 C44.75 19.6875 44.75 19.6875 45 22 C46.12905762 21.97905273 47.25811523 21.95810547 48.42138672 21.93652344 C52.65188676 21.86355532 56.88233237 21.81799588 61.11328125 21.78027344 C62.93661892 21.76028636 64.75989356 21.73308714 66.58300781 21.69824219 C88.84575149 21.28371136 88.84575149 21.28371136 95.91357422 27.75097656 C101.93011944 34.14714375 102.29419829 40.22790177 102.27415466 48.68379211 C102.27939134 49.77272819 102.28462802 50.86166427 102.29002339 51.98359841 C102.30504749 55.63924906 102.30572908 59.29476003 102.30639648 62.95043945 C102.31401631 65.56870765 102.3224435 68.18697361 102.33161926 70.80523682 C102.35445356 77.92301888 102.36238805 85.0407711 102.36744571 92.15858483 C102.37070429 96.60421902 102.37722771 101.04984456 102.3844471 105.49547386 C102.40401029 117.8081767 102.42041637 130.12087151 102.42332363 142.43359089 C102.4235112 143.22125499 102.42369877 144.0089191 102.42389202 144.82045181 C102.42425827 146.41717986 102.42462197 148.01390792 102.42498314 149.61063597 C102.42516595 150.40323499 102.42534876 151.195834 102.42553711 152.01245117 C102.42580793 153.2028034 102.42580793 153.2028034 102.42608423 154.41720315 C102.42962611 167.2767103 102.45665058 180.13605003 102.494035 192.99549911 C102.53212438 206.20328995 102.55148115 219.41099771 102.55178314 232.61884469 C102.55236754 240.03253836 102.56084817 247.44603224 102.58978081 254.85967445 C102.6168679 261.8323794 102.61819417 268.80468259 102.60212517 275.77742004 C102.60030674 278.33642628 102.60703663 280.89545502 102.62294388 283.45441246 C102.6433398 286.94849789 102.63288865 290.4411897 102.61473083 293.93525696 C102.6279308 294.94742682 102.64113077 295.95959669 102.65473074 297.00243837 C102.56731513 304.36930194 100.63363607 309.16479479 95.55733293 314.52269632 C89.88818933 319.65129873 83.99551033 320.2971877 76.63237 320.26742554 C75.80463241 320.27195665 74.97689482 320.27648776 74.12407428 320.28115618 C71.35829374 320.2937878 68.59271044 320.29218061 65.8269043 320.29052734 C63.84064481 320.29651337 61.85438765 320.30331908 59.86813354 320.31088257 C54.47754814 320.32854229 49.08702624 320.33323794 43.69641471 320.33451414 C40.32701505 320.33593632 36.95763151 320.34020719 33.58823586 320.34550858 C21.82907716 320.36400881 10.06996379 320.3721792 -1.68920898 320.37060547 C-12.64326738 320.36940409 -23.59712873 320.39050574 -34.55113727 320.4220928 C-43.96194614 320.44826096 -53.37269069 320.45897253 -62.78353566 320.45769465 C-68.40144382 320.45718518 -74.01917686 320.46286053 -79.63704872 320.48405075 C-84.9222418 320.50344208 -90.20709285 320.50355131 -95.49229813 320.48901749 C-97.42843438 320.48692941 -99.36459209 320.49163018 -101.3006916 320.5037384 C-122.18702778 320.62586597 -122.18702778 320.62586597 -128.85132313 314.22064781 C-135.94699903 306.52342348 -136.14972428 298.67526544 -136.13371277 288.61355591 C-136.13597833 287.56868448 -136.13824388 286.52381305 -136.14057809 285.44727886 C-136.14690723 281.94677492 -136.14608942 278.44630981 -136.14526367 274.94580078 C-136.14825582 272.43575999 -136.15165848 269.92571966 -136.15544128 267.41567993 C-136.16336135 261.30570431 -136.16649567 255.19574291 -136.16705366 249.08576263 C-136.16752925 244.11839069 -136.16958616 239.15102191 -136.17275429 234.18365097 C-136.18155782 220.09321628 -136.18617409 206.0027892 -136.18542381 191.91235174 C-136.18538386 191.15317508 -136.1853439 190.39399842 -136.18530273 189.61181641 C-136.18526185 188.85171052 -136.18522097 188.09160463 -136.18517885 187.30846523 C-136.18477237 174.98903864 -136.19434318 162.66964261 -136.2084411 150.35022487 C-136.22281009 137.69385522 -136.22971101 125.03750048 -136.22884732 112.38112247 C-136.22851556 105.27827022 -136.23125386 98.17545002 -136.24202538 91.07260513 C-136.25209034 84.39300309 -136.25178969 77.71347995 -136.24450874 71.0338707 C-136.24346218 68.58291271 -136.24583002 66.13195052 -136.2518692 63.68099976 C-136.25958176 60.33405717 -136.254949 56.98734888 -136.24723816 53.64041138 C-136.25238172 52.67172406 -136.25752529 51.70303675 -136.26282471 50.70499527 C-136.22098578 42.48078703 -135.28844304 35.6483284 -130 29 C-124.35622543 23.51299694 -117.80872217 21.65788543 -110.14746094 21.66011047 C-109.33567383 21.67559433 -108.52388672 21.69107819 -107.6875 21.70703125 C-106.83317383 21.71127609 -105.97884766 21.71552094 -105.09863281 21.71989441 C-102.39875318 21.73654297 -99.69964989 21.77416777 -97 21.8125 C-95.15756295 21.82756477 -93.31511407 21.84125002 -91.47265625 21.85351562 C-86.98147661 21.88640094 -82.49086944 21.93808544 -78 22 C-77.9175 21.236875 -77.835 20.47375 -77.75 19.6875 C-77 17 -77 17 -75.34472656 15.20581055 C-72.24593947 13.61221315 -69.96180251 13.65961178 -66.484375 13.70703125 C-65.23398437 13.71669922 -63.98359375 13.72636719 -62.6953125 13.73632812 C-61.39335937 13.76146484 -60.09140625 13.78660156 -58.75 13.8125 C-57.43257813 13.82603516 -56.11515625 13.83957031 -54.7578125 13.85351562 C-51.50479679 13.88887449 -48.252604 13.93822967 -45 14 C-44.55539429 12.82739624 -44.55539429 12.82739624 -44.10180664 11.63110352 C-41.5590488 5.55902259 -36.14668871 1.23306646 -30.25 -1.4375 C-20.01638943 -5.54198769 -9.84374261 -5.10084845 0 0 Z M-117.20975685 40.89690304 C-119.77811586 45.34873799 -119.54804685 49.16062265 -119.49447632 54.21717834 C-119.49930515 55.25585051 -119.50413398 56.29452267 -119.50910914 57.36466974 C-119.52039405 60.85022007 -119.50304967 64.33503907 -119.48583984 67.82055664 C-119.48798534 70.31723733 -119.49186248 72.81391706 -119.49734497 75.31059265 C-119.5060417 81.39072743 -119.49615287 87.47057521 -119.47764437 93.55066688 C-119.45686926 100.62994488 -119.45701693 107.7091759 -119.45798953 114.78847867 C-119.45899063 127.41835791 -119.44067111 140.04813583 -119.41162109 152.67797852 C-119.38344056 164.93613531 -119.36927982 177.19420294 -119.37060547 189.45239258 C-119.37068538 190.20751422 -119.37076529 190.96263587 -119.37084763 191.74063999 C-119.37092834 192.49445068 -119.37100905 193.24826137 -119.3710922 194.0249148 C-119.37247161 207.9773953 -119.3606941 221.92983788 -119.34278577 235.88230609 C-119.33675129 240.81825251 -119.33462644 245.75419197 -119.33372116 250.69014168 C-119.33221506 257.33115372 -119.31953411 263.97208385 -119.29938889 270.61306953 C-119.29353515 273.05441207 -119.2910889 275.49576543 -119.29224396 277.93711472 C-119.29322179 281.2614457 -119.28194928 284.58551121 -119.26742554 287.9098053 C-119.27052274 288.8830442 -119.27361995 289.8562831 -119.276811 290.85901409 C-119.27036211 291.74867727 -119.26391322 292.63834045 -119.25726891 293.55496311 C-119.25586006 294.32232558 -119.25445121 295.08968804 -119.25299966 295.88030392 C-118.96188978 298.31929719 -118.29289488 299.9192287 -117 302 C-113.91958119 303.54020941 -110.68131043 303.14430293 -107.30079651 303.14044189 C-106.49674454 303.14341302 -105.69269257 303.14638414 -104.8642754 303.1494453 C-102.15503064 303.15815552 -99.44582994 303.15964249 -96.73657227 303.16113281 C-94.80028183 303.16575928 -92.86399231 303.1707837 -90.92770386 303.17617798 C-85.65712814 303.18931897 -80.38656517 303.19575004 -75.11597562 303.20018864 C-71.8263839 303.20311612 -68.53679569 303.20722026 -65.24720573 303.21169281 C-54.9641336 303.2253711 -44.68106946 303.23503661 -34.39798886 303.2388947 C-22.51001222 303.24337894 -10.62215036 303.26094243 1.26579136 303.2898953 C10.44372433 303.31147566 19.62162493 303.321597 28.79958302 303.32293582 C34.28654801 303.3239863 39.77340517 303.32994581 45.26034355 303.34775543 C50.41901312 303.36417359 55.57749305 303.36642221 60.73617935 303.35761642 C62.63290602 303.35684273 64.52964263 303.36123222 66.42634392 303.37107468 C69.00906279 303.38369451 71.59109978 303.37797226 74.17381287 303.36749268 C74.93022692 303.37554908 75.68664097 303.38360548 76.46597666 303.39190602 C80.32522448 303.41132319 80.32522448 303.41132319 83.69124138 301.75113177 C85.3398323 299.54530108 85.37670925 298.34757221 85.38031673 295.60995483 C85.39297665 294.25569617 85.39297665 294.25569617 85.40589231 292.87407875 C85.39687724 291.38445909 85.39687724 291.38445909 85.38768005 289.86474609 C85.39306559 288.81074301 85.39845113 287.75673992 85.40399987 286.67079735 C85.41836383 283.12156033 85.41115486 279.57269184 85.40405273 276.0234375 C85.40975184 273.48601988 85.41671431 270.94860482 85.42485046 268.41119385 C85.44097575 262.22424094 85.44287248 256.03742526 85.43763756 249.85045767 C85.43360039 244.82336998 85.43503401 239.79631232 85.44038582 234.76922607 C85.44113424 234.05445551 85.44188266 233.33968495 85.44265376 232.60325468 C85.4441852 231.15133046 85.44572354 229.69940626 85.44726873 228.24748206 C85.46100423 214.62443279 85.45554854 201.00144091 85.44408352 187.37839293 C85.43414817 174.90662377 85.44709511 162.43500289 85.47101771 149.9632566 C85.4953808 137.16574123 85.50502359 124.36829501 85.49836498 111.57075691 C85.49486677 104.3824749 85.49714442 97.19430701 85.51461601 90.00604248 C85.53083478 83.24925939 85.52620004 76.4928058 85.50731087 69.73601532 C85.50360757 67.25071011 85.50678365 64.76538412 85.51719666 62.28009796 C85.53028892 58.89814986 85.51896328 55.51715967 85.50120544 52.13525391 C85.51081045 51.14217413 85.52041546 50.14909435 85.53031152 49.12592125 C85.52049723 48.22308214 85.51068294 47.32024303 85.50057125 46.39004517 C85.50041025 45.21857909 85.50041025 45.21857909 85.50024599 44.02344704 C85.14822026 41.83652096 85.14822026 41.83652096 83.20363861 40.24690819 C79.84693698 38.34755013 76.48375215 38.63132182 72.734375 38.70703125 C71.94097717 38.71127609 71.14757935 38.71552094 70.33013916 38.71989441 C67.8030768 38.7366496 65.27682017 38.77429494 62.75 38.8125 C61.03386571 38.82755097 59.31771888 38.84123866 57.6015625 38.85351562 C53.40073254 38.88654265 49.20050275 38.93830235 45 39 C44.99589111 39.64026123 44.99178223 40.28052246 44.98754883 40.94018555 C44.95453962 43.85687905 44.88388974 46.77150384 44.8125 49.6875 C44.80379883 51.19860352 44.80379883 51.19860352 44.79492188 52.74023438 C44.76591797 53.71669922 44.73691406 54.69316406 44.70703125 55.69921875 C44.6913208 56.59471436 44.67561035 57.49020996 44.65942383 58.4128418 C43.67528389 62.27397874 42.17558208 63.5836436 39 66 C35.44468911 66.74607511 31.94432534 66.68319379 28.32226562 66.64697266 C27.24692062 66.65573425 26.17157562 66.66449585 25.06364441 66.67352295 C21.51076858 66.69552081 17.95913838 66.68096152 14.40625 66.6640625 C11.93672446 66.66743049 9.46720053 66.67228296 6.99768066 66.67855835 C1.8226747 66.68593026 -3.35189968 66.67521311 -8.52685547 66.65185547 C-15.16178489 66.62336846 -21.79570308 66.63977059 -28.4305954 66.66971779 C-33.52984238 66.68778158 -38.62884944 66.68203674 -43.72810364 66.66907883 C-46.1745465 66.66574232 -48.62101112 66.66984041 -51.06742859 66.68147659 C-54.48629491 66.69416923 -57.90352151 66.67482758 -61.32226562 66.64697266 C-62.334366 66.65709381 -63.34646637 66.66721497 -64.38923645 66.67764282 C-69.09699843 66.60654815 -71.28590542 66.54336716 -75.12614441 63.6212616 C-77.21250593 60.70273395 -77.64476784 59.24823334 -77.70703125 55.69921875 C-77.73603516 54.72275391 -77.76503906 53.74628906 -77.79492188 52.74023438 C-77.80072266 51.73283203 -77.80652344 50.72542969 -77.8125 49.6875 C-77.83763672 48.66076172 -77.86277344 47.63402344 -77.88867188 46.57617188 C-77.94741085 44.050396 -77.98378712 41.52634772 -78 39 C-83.19603804 38.87630293 -88.39121744 38.78561691 -93.58837891 38.7253418 C-95.35578338 38.70021359 -97.1230841 38.66610484 -98.89013672 38.62280273 C-101.43222649 38.56207265 -103.97294165 38.53377485 -106.515625 38.51171875 C-107.30430969 38.48591232 -108.09299438 38.4601059 -108.90557861 38.43351746 C-112.43115697 38.43171933 -114.49118728 38.56322417 -117.20975685 40.89690304 Z " fill="#57A3FF" transform="translate(402,98)"/>
<path d="M0 0 C4.22142632 0.8470233 6.3642596 3.6901997 9.08374023 6.84326172 C10.29411378 8.14163561 11.51036129 9.43455644 12.73217773 10.72216797 C13.33513672 11.3617041 13.9380957 12.00124023 14.55932617 12.66015625 C43.2468063 41.89233537 89.9089846 52.0625018 129.18286133 52.5 C172.93133098 52.037268 214.7842876 37.02737279 246.33374023 6.46826172 C247.40096315 5.24319348 248.46459742 4.0149671 249.52124023 2.78076172 C252.93510302 -0.02619212 254.94437473 -0.36530526 259.27514648 -0.05126953 C261.33374023 0.46826172 261.33374023 0.46826172 263.89624023 2.59326172 C265.58632396 5.97342918 265.72796005 7.72549241 265.33374023 11.46826172 C248.15759905 39.88772238 208.91791677 56.70985214 178.09936523 64.37060547 C176.51200575 64.7415861 174.9234065 65.10729366 173.33374023 65.46826172 C172.49649414 65.66436035 171.65924805 65.86045898 170.79663086 66.0625 C142.39623755 72.42398004 109.62953029 72.23330323 81.33374023 65.46826172 C80.43010742 65.25395508 79.52647461 65.03964844 78.59545898 64.81884766 C47.05802592 57.06984318 9.53058396 40.98208442 -9.70141602 13.27685547 C-11.214433 10.44071431 -11.35970207 8.58875207 -10.66625977 5.46826172 C-8.07299496 0.28173211 -5.37580774 -0.13946289 0 0 Z " fill="#0F5FBD" transform="translate(128.666259765625,434.53173828125)"/>
<path d="M0 0 C0.90363281 0.21430664 1.80726563 0.42861328 2.73828125 0.64941406 C34.24281517 8.39033495 71.84930323 24.47795408 91.03125 52.19140625 C92.56975384 55.06369367 92.77173162 56.84291611 92 60 C90 62.875 90 62.875 87 65 C80.43450819 65.97900451 80.43450819 65.97900451 77.18701172 63.76269531 C75.33460137 61.9801377 73.63433597 60.11864552 71.9375 58.1875 C42.01231749 26.48336534 -1.78671864 14.3177768 -44.2734375 13.05224609 C-84.12125267 12.2886866 -128.10513129 24.61505823 -158 52 C-159.16136805 53.18406901 -160.30966479 54.38108429 -161.4453125 55.58984375 C-162.01096924 56.18829102 -162.57662598 56.78673828 -163.15942383 57.40332031 C-164.23030027 58.5591267 -165.27893935 59.73610803 -166.29956055 60.93652344 C-168.51839339 63.36135653 -170.00505852 64.81270198 -173.2980957 65.43261719 C-177.42629069 65.54052215 -179.2960601 65.58375504 -182.5625 62.875 C-184.25258373 59.49483254 -184.39421982 57.74276931 -184 54 C-166.82385881 25.58053934 -127.58417653 8.75840958 -96.765625 1.09765625 C-95.17826551 0.72667562 -93.58966626 0.36096806 -92 0 C-90.74413086 -0.29414795 -90.74413086 -0.29414795 -89.46289062 -0.59423828 C-61.06249732 -6.95571832 -28.29579006 -6.76504151 0 0 Z " fill="#0F5FBD" transform="translate(302,12)"/>
<path d="M0 0 C1.98615712 -0.01712412 3.97202492 -0.06100974 5.95776367 -0.10522461 C13.40084812 -0.15436636 18.56079584 0.13300014 24.82299805 4.29516602 C29.30400161 9.12086217 29.99506594 12.3119937 30.0612793 18.71704102 C30.06935104 19.45464661 30.07742279 20.1922522 30.08573914 20.95220947 C30.09957855 22.51572318 30.11030136 24.07926708 30.11816406 25.64282227 C30.13533321 28.02232047 30.17921192 30.40041294 30.22338867 32.77954102 C30.23351988 34.30036415 30.24203464 35.82119909 30.2487793 37.34204102 C30.26628738 38.04850769 30.28379547 38.75497437 30.30183411 39.48284912 C30.27976609 44.56540625 28.98579735 47.37052982 25.82299805 51.29516602 C19.31329301 57.16977788 12.99040393 56.51276842 4.68164062 56.53540039 C2.52849383 56.54508507 0.37631072 56.57611053 -1.77661133 56.60766602 C-3.15616298 56.6141989 -4.53572143 56.61944825 -5.9152832 56.62329102 C-7.7876062 56.63730957 -7.7876062 56.63730957 -9.69775391 56.65161133 C-14.14843691 56.19564352 -17.5329132 54.8299092 -20.8215332 51.76000977 C-24.62189905 46.79030058 -25.35176924 44.01721725 -25.4152832 37.87329102 C-25.42335495 37.13568542 -25.4314267 36.39807983 -25.43974304 35.63812256 C-25.45358246 34.07460885 -25.46430526 32.51106495 -25.47216797 30.94750977 C-25.48933711 28.56801157 -25.53321582 26.18991909 -25.57739258 23.81079102 C-25.58752378 22.28996788 -25.59603855 20.76913294 -25.6027832 19.24829102 C-25.62029129 18.54182434 -25.63779938 17.83535767 -25.65583801 17.10748291 C-25.63378234 12.02776888 -24.36955179 9.19953169 -21.17700195 5.29516602 C-14.1429895 -0.01623114 -8.55930846 0.05131605 0 0 Z " fill="#0F5FBD" transform="translate(67.177001953125,182.704833984375)"/>
<path d="M0 0 C2.15314679 -0.00968468 4.3053299 -0.04071014 6.45825195 -0.07226562 C7.83780361 -0.07879851 9.21736206 -0.08404786 10.59692383 -0.08789062 C12.46924683 -0.10190918 12.46924683 -0.10190918 14.37939453 -0.11621094 C18.83007754 0.33975687 22.21455382 1.70549119 25.50317383 4.77539062 C29.30353967 9.74509981 30.03340986 12.51818314 30.09692383 18.66210938 C30.10499557 19.39971497 30.11306732 20.13732056 30.12138367 20.89727783 C30.13522309 22.46079154 30.14594589 24.02433544 30.15380859 25.58789062 C30.17097774 27.96738883 30.21485645 30.3454813 30.2590332 32.72460938 C30.26916441 34.24543251 30.27767917 35.76626745 30.28442383 37.28710938 C30.30193192 37.99357605 30.31944 38.70004272 30.33747864 39.42791748 C30.31542156 44.50795498 29.04748532 47.33335259 25.85864258 51.24023438 C18.3700711 57.01267489 11.76411315 56.45148106 2.60864258 56.49023438 C0.80459961 56.52117187 0.80459961 56.52117187 -1.03588867 56.55273438 C-15.54382187 56.61643551 -15.54382187 56.61643551 -20.68896484 51.7878418 C-24.7698805 47.06034509 -25.31727197 43.8513066 -25.37963867 37.81835938 C-25.38771042 37.08075378 -25.39578217 36.34314819 -25.40409851 35.58319092 C-25.41793793 34.01967721 -25.42866073 32.45613331 -25.43652344 30.89257812 C-25.45369258 28.51307992 -25.49757129 26.13498745 -25.54174805 23.75585938 C-25.55187925 22.23503624 -25.56039402 20.7142013 -25.56713867 19.19335938 C-25.58464676 18.4868927 -25.60215485 17.78042603 -25.62019348 17.05255127 C-25.59812546 11.96999414 -24.30415673 9.16487057 -21.14135742 5.24023438 C-14.63165238 -0.63437749 -8.30876331 0.02263197 0 0 Z " fill="#0F5FBD" transform="translate(67.141357421875,254.759765625)"/>
<path d="M0 0 C1.94712891 -0.04350586 1.94712891 -0.04350586 3.93359375 -0.08789062 C11.36410628 -0.1371244 16.49449896 0.1673796 22.75 4.3125 C28.84465952 10.71970616 27.96831575 17.56572615 27.99023438 25.88110352 C27.99992021 28.10666562 28.03094532 30.33129592 28.0625 32.55664062 C28.06903272 33.98176538 28.07428214 35.40689671 28.078125 36.83203125 C28.09214355 38.76719604 28.09214355 38.76719604 28.10644531 40.74145508 C27.65838192 45.23037515 26.29645216 48.57634971 23.28515625 51.95703125 C16.55861068 57.29187774 10.30572942 56.5290766 1.96044922 56.55273438 C-0.11141166 56.56243637 -2.18227797 56.59348486 -4.25390625 56.625 C-5.57003906 56.63015625 -6.88617188 56.6353125 -8.2421875 56.640625 C-9.44214355 56.6499707 -10.64209961 56.65931641 -11.87841797 56.66894531 C-16.26877037 56.20479509 -19.65048788 54.80563126 -22.89453125 51.77734375 C-26.6948971 46.80763457 -27.42476728 44.03455123 -27.48828125 37.890625 C-27.496353 37.15301941 -27.50442474 36.41541382 -27.51274109 35.65545654 C-27.52658051 34.09194284 -27.53730331 32.52839894 -27.54516602 30.96484375 C-27.56233516 28.58534555 -27.60621387 26.20725307 -27.65039062 23.828125 C-27.66052183 22.30730186 -27.6690366 20.78646693 -27.67578125 19.265625 C-27.69328934 18.55915833 -27.71079742 17.85269165 -27.72883606 17.12481689 C-27.70676632 12.04186342 -26.40906503 9.23969262 -23.25 5.3125 C-16.35751424 -1.06304933 -8.97749842 0.0660758 0 0 Z " fill="#0F5FBD" transform="translate(328.25,182.6875)"/>
<path d="M0 0 C2.15314679 -0.00968468 4.3053299 -0.04071014 6.45825195 -0.07226562 C7.83780361 -0.07879851 9.21736206 -0.08404786 10.59692383 -0.08789062 C12.46924683 -0.10190918 12.46924683 -0.10190918 14.37939453 -0.11621094 C18.83007754 0.33975687 22.21455382 1.70549119 25.50317383 4.77539062 C29.25769558 9.68514984 30.02454981 12.37721582 30.06176758 18.44335938 C30.06746765 19.15876892 30.07316772 19.87417847 30.07904053 20.61126709 C30.08849328 22.12771119 30.0950256 23.64417586 30.09887695 25.16064453 C30.10854725 27.46749411 30.13955154 29.77343907 30.17114258 32.08007812 C30.17767646 33.55533327 30.18292542 35.03059477 30.18676758 36.50585938 C30.19911438 37.19045227 30.21146118 37.87504517 30.22418213 38.5803833 C30.20295884 43.20378435 29.2633633 46.3056312 26.85864258 50.24023438 C19.82511738 57.0836643 11.71045772 56.57748442 2.48364258 56.55273438 C1.2899707 56.56884766 0.09629883 56.58496094 -1.13354492 56.6015625 C-15.54943729 56.60953589 -15.54943729 56.60953589 -20.68945312 51.78808594 C-24.76916741 47.05960317 -25.31726877 43.85161603 -25.37963867 37.81835938 C-25.38771042 37.08075378 -25.39578217 36.34314819 -25.40409851 35.58319092 C-25.41793793 34.01967721 -25.42866073 32.45613331 -25.43652344 30.89257812 C-25.45369258 28.51307992 -25.49757129 26.13498745 -25.54174805 23.75585938 C-25.55187925 22.23503624 -25.56039402 20.7142013 -25.56713867 19.19335938 C-25.58464676 18.4868927 -25.60215485 17.78042603 -25.62019348 17.05255127 C-25.59812546 11.96999414 -24.30415673 9.16487057 -21.14135742 5.24023438 C-14.63165238 -0.63437749 -8.30876331 0.02263197 0 0 Z " fill="#0F5FBD" transform="translate(326.141357421875,254.759765625)"/>
<path d="M0 0 C0.70596313 -0.0038269 1.41192627 -0.00765381 2.13928223 -0.01159668 C3.62167805 -0.01430073 5.10412282 -0.00704566 6.58642578 0.00976562 C8.83866055 0.03120156 11.08770664 0.00991723 13.33984375 -0.015625 C14.78906945 -0.01298145 16.23829318 -0.0078559 17.6875 0 C19.63946289 0.00676758 19.63946289 0.00676758 21.63085938 0.01367188 C26.64322739 0.71239756 30.34019331 2.14626194 33.6493988 6.08546448 C36.36759417 10.3481707 36.86749673 14.07333265 36.91015625 19.15234375 C36.91945412 20.20773094 36.91945412 20.20773094 36.92893982 21.28443909 C36.93599761 22.76261015 36.93293501 24.24086138 36.92016602 25.71899414 C36.90630005 27.96065914 36.94041895 30.19813962 36.97851562 32.43945312 C37.017378 39.22675237 37.02978999 45.29835717 33.00366211 51.07055664 C28.313319 55.19797579 23.58352727 55.99044805 17.53125 55.96484375 C16.4333313 55.97270653 16.4333313 55.97270653 15.31323242 55.98072815 C13.7736131 55.98711997 12.23394477 55.9858483 10.69433594 55.97729492 C8.35002146 55.9687728 6.00813755 55.99760026 3.6640625 56.02929688 C2.16145906 56.03090898 0.65885134 56.03033117 -0.84375 56.02734375 C-1.88462769 56.04419472 -1.88462769 56.04419472 -2.9465332 56.06138611 C-7.99058598 55.98978829 -10.83110343 54.77782286 -14.65625 51.53125 C-18.43031668 47.07689127 -19.25421663 43.44577269 -19.1875 37.75390625 C-19.1913269 37.02433212 -19.19515381 36.294758 -19.19909668 35.54307556 C-19.20180559 34.00762545 -19.19451604 32.47212837 -19.17773438 30.93676758 C-19.15633728 28.60326794 -19.17755075 26.27285709 -19.203125 23.93945312 C-19.20048093 22.44009745 -19.19535432 20.94074368 -19.1875 19.44140625 C-19.19559692 18.75264908 -19.20369385 18.06389191 -19.21203613 17.35426331 C-19.11386383 12.20911701 -17.95814201 8.43235399 -14.65625 4.53125 C-10.13329774 0.72791893 -5.88532741 0.0204048 0 0 Z " fill="#0F5FBD" transform="translate(319.65625,326.46875)"/>
<path d="M0 0 C0.70596313 -0.0038269 1.41192627 -0.00765381 2.13928223 -0.01159668 C3.62167805 -0.01430073 5.10412282 -0.00704566 6.58642578 0.00976562 C8.83866055 0.03120156 11.08770664 0.00991723 13.33984375 -0.015625 C14.78906945 -0.01298145 16.23829318 -0.0078559 17.6875 0 C19.63946289 0.00676758 19.63946289 0.00676758 21.63085938 0.01367188 C26.64437958 0.71255817 30.33784695 2.14762412 33.65063477 6.08422852 C36.38266771 10.36248878 36.85731981 14.08802943 36.875 19.1875 C36.8788269 19.89346313 36.88265381 20.59942627 36.88659668 21.32678223 C36.88930073 22.80917805 36.88204566 24.29162282 36.86523438 25.77392578 C36.84379844 28.02616055 36.86508277 30.27520664 36.890625 32.52734375 C36.88798145 33.97656945 36.8828559 35.42579318 36.875 36.875 C36.87048828 38.17630859 36.86597656 39.47761719 36.86132812 40.81835938 C36.16259629 45.8307715 34.72657196 49.51794991 30.79846191 52.8368988 C26.54350608 55.56115179 22.47838112 56.1338966 17.46875 56.09765625 C16.37651123 56.10695412 16.37651123 56.10695412 15.26220703 56.11643982 C13.73276089 56.12349896 12.20323727 56.12043264 10.67382812 56.10766602 C8.34880861 56.09378021 6.02780678 56.12794233 3.703125 56.16601562 C-8.66111203 56.23440631 -8.66111203 56.23440631 -13.03125 53.37109375 C-19.47808035 46.39662103 -19.15388837 39.34030061 -19.10229492 30.36401367 C-19.09378511 28.1030772 -19.12258087 25.84467185 -19.15429688 23.58398438 C-19.15590937 22.13020908 -19.15533044 20.67642937 -19.15234375 19.22265625 C-19.15419678 17.91498291 -19.1560498 16.60730957 -19.15795898 15.26000977 C-18.48107451 10.22932532 -17.05008846 6.5453575 -13.10313416 3.22450256 C-8.82515254 0.49208735 -5.09935019 0.01767977 0 0 Z " fill="#0F5FBD" transform="translate(60.65625,326.46875)"/>
<path d="M0 0 C5.21182908 1.89521057 7.44625003 5.43389922 9.875 10.25 C10.45894531 11.55710937 10.45894531 11.55710937 11.0546875 12.890625 C11.82397846 14.94267669 11.82397846 14.94267669 13 16 C14.99782126 16.15825258 17.00088834 16.25119171 19.00390625 16.31640625 C20.21884766 16.35830078 21.43378906 16.40019531 22.68554688 16.44335938 C23.96494141 16.48267578 25.24433594 16.52199219 26.5625 16.5625 C27.84576172 16.60568359 29.12902344 16.64886719 30.45117188 16.69335938 C33.63397445 16.79984719 36.81697243 16.90046421 40 17 C40 23.6 40 30.2 40 37 C9.97 37 -20.06 37 -51 37 C-51 30.4 -51 23.8 -51 17 C-49.15792969 16.95101562 -47.31585938 16.90203125 -45.41796875 16.8515625 C-43.00779701 16.7765377 -40.59764151 16.70098975 -38.1875 16.625 C-36.97255859 16.5940625 -35.75761719 16.563125 -34.50585938 16.53125 C-32.76079102 16.47324219 -32.76079102 16.47324219 -30.98046875 16.4140625 C-29.90692139 16.3826416 -28.83337402 16.3512207 -27.72729492 16.31884766 C-24.7839235 16.18407693 -24.7839235 16.18407693 -22 14 C-20.95551146 11.9523215 -20.95551146 11.9523215 -20.125 9.625 C-16.23772368 0.32543896 -9.31733622 -1.08251209 0 0 Z " fill="#0F5FBD" transform="translate(391,111)"/>
<path d="M0 0 C6.35361383 2.88800628 8.42015875 7.54801068 11.22583008 13.6784668 C12.81882202 16.27247593 12.81882202 16.27247593 15.8190918 16.65942383 C17.49225464 16.6829895 17.49225464 16.6829895 19.19921875 16.70703125 C21.01196289 16.75053711 21.01196289 16.75053711 22.86132812 16.79492188 C24.12396484 16.80072266 25.38660156 16.80652344 26.6875 16.8125 C27.96173828 16.83763672 29.23597656 16.86277344 30.54882812 16.88867188 C33.69888501 16.9476617 36.84947725 16.97666279 40 17 C40 23.6 40 30.2 40 37 C10.3 37 -19.4 37 -50 37 C-50 30.73 -50 24.46 -50 18 C-48.39769531 17.96261719 -46.79539062 17.92523438 -45.14453125 17.88671875 C-43.03383101 17.82105252 -40.92315497 17.75460541 -38.8125 17.6875 C-37.75740234 17.66494141 -36.70230469 17.64238281 -35.61523438 17.61914062 C-34.59365234 17.58369141 -33.57207031 17.54824219 -32.51953125 17.51171875 C-31.58214111 17.48553467 -30.64475098 17.45935059 -29.67895508 17.43237305 C-26.51832883 16.92226013 -24.58779508 15.85913468 -22 14 C-20.81702253 11.93419445 -20.81702253 11.93419445 -20.125 9.625 C-18.4617951 5.59517943 -16.85707916 3.12896292 -13.125 0.8125 C-8.79261798 -0.84399901 -4.52941851 -0.72525432 0 0 Z " fill="#0F5FBD" transform="translate(132,111)"/>
<path d="M0 0 C0.82160614 -0.00511093 1.64321228 -0.01022186 2.48971558 -0.01548767 C5.20358581 -0.02937907 7.91720197 -0.02842727 10.63110352 -0.02612305 C12.5191304 -0.03001018 14.4071564 -0.03434488 16.29518127 -0.03910828 C20.25199214 -0.04656948 24.20871377 -0.04627989 28.16552734 -0.04101562 C33.23423686 -0.03522061 38.30258102 -0.05215326 43.37123013 -0.0753603 C47.2703108 -0.09009719 51.16930347 -0.09096941 55.06840706 -0.08785057 C56.9371011 -0.08836379 58.80580006 -0.0936016 60.67446709 -0.10366249 C63.28842744 -0.11600895 65.90167591 -0.10924616 68.515625 -0.09765625 C69.28617722 -0.10529999 70.05672943 -0.11294373 70.85063171 -0.12081909 C75.34300856 -0.07682758 78.25692641 0.47964621 81.82250977 3.2746582 C83.38722209 6.40408286 83.51952934 9.88548044 82.82250977 13.2746582 C81.33093262 15.3717041 81.33093262 15.3717041 78.82250977 17.2746582 C75.84529158 17.66919959 73.23841745 17.82193273 70.26196289 17.79223633 C69.39973618 17.79924561 68.53750946 17.80625488 67.64915466 17.81347656 C64.80036164 17.83107509 61.95256281 17.81942732 59.10375977 17.8059082 C57.12365529 17.80860259 55.1435521 17.81248456 53.16345215 17.81750488 C49.01403198 17.82340245 44.86495629 17.81482858 40.71557617 17.79614258 C35.39552644 17.77335297 30.07628385 17.78647466 24.75626373 17.81043243 C20.66760166 17.82488337 16.57913109 17.82028764 12.49046326 17.80992126 C10.52884323 17.80725203 8.56720584 17.81053062 6.60560608 17.81983948 C3.86428747 17.82999343 1.12427771 17.81452047 -1.61694336 17.79223633 C-2.4284938 17.80033325 -3.24004425 17.80843018 -4.07618713 17.81677246 C-7.64885753 17.76294076 -9.75016387 17.59367323 -12.65393066 15.42590332 C-14.64612332 12.61295475 -15.10720378 10.71869434 -15.17749023 7.2746582 C-13.99923346 4.54606357 -13.01864507 2.86447837 -10.57530212 1.15119934 C-7.08709474 -0.12394542 -3.6660491 -0.0117559 0 0 Z " fill="#0F5FBD" transform="translate(387.177490234375,331.725341796875)"/>
<path d="M0 0 C0.82160614 -0.00511093 1.64321228 -0.01022186 2.48971558 -0.01548767 C5.20358581 -0.02937907 7.91720197 -0.02842727 10.63110352 -0.02612305 C12.5191304 -0.03001018 14.4071564 -0.03434488 16.29518127 -0.03910828 C20.25199214 -0.04656948 24.20871377 -0.04627989 28.16552734 -0.04101562 C33.23423686 -0.03522061 38.30258102 -0.05215326 43.37123013 -0.0753603 C47.2703108 -0.09009719 51.16930347 -0.09096941 55.06840706 -0.08785057 C56.9371011 -0.08836379 58.80580006 -0.0936016 60.67446709 -0.10366249 C63.28842744 -0.11600895 65.90167591 -0.10924616 68.515625 -0.09765625 C69.28617722 -0.10529999 70.05672943 -0.11294373 70.85063171 -0.12081909 C75.34300856 -0.07682758 78.25692641 0.47964621 81.82250977 3.2746582 C83.38722209 6.40408286 83.51952934 9.88548044 82.82250977 13.2746582 C81.33093262 15.3717041 81.33093262 15.3717041 78.82250977 17.2746582 C75.84529158 17.66919959 73.23841745 17.82193273 70.26196289 17.79223633 C69.39973618 17.79924561 68.53750946 17.80625488 67.64915466 17.81347656 C64.80036164 17.83107509 61.95256281 17.81942732 59.10375977 17.8059082 C57.12365529 17.80860259 55.1435521 17.81248456 53.16345215 17.81750488 C49.01403198 17.82340245 44.86495629 17.81482858 40.71557617 17.79614258 C35.39552644 17.77335297 30.07628385 17.78647466 24.75626373 17.81043243 C20.66760166 17.82488337 16.57913109 17.82028764 12.49046326 17.80992126 C10.52884323 17.80725203 8.56720584 17.81053062 6.60560608 17.81983948 C3.86428747 17.82999343 1.12427771 17.81452047 -1.61694336 17.79223633 C-2.4284938 17.80033325 -3.24004425 17.80843018 -4.07618713 17.81677246 C-7.64885753 17.76294076 -9.75016387 17.59367323 -12.65393066 15.42590332 C-14.64612332 12.61295475 -15.10720378 10.71869434 -15.17749023 7.2746582 C-13.99923346 4.54606357 -13.01864507 2.86447837 -10.57530212 1.15119934 C-7.08709474 -0.12394542 -3.6660491 -0.0117559 0 0 Z " fill="#0F5FBD" transform="translate(387.177490234375,215.725341796875)"/>
<path d="M0 0 C1.27608124 -0.01248528 1.27608124 -0.01248528 2.57794189 -0.02522278 C5.39461828 -0.04934896 8.21106322 -0.05809801 11.02783203 -0.06469727 C12.98454865 -0.07366152 14.94126456 -0.08278332 16.89797974 -0.09205627 C21.00199043 -0.10855588 25.10591944 -0.11624817 29.20996094 -0.11914062 C34.46833496 -0.1245258 39.72594127 -0.16220734 44.98409843 -0.20788479 C49.02644655 -0.23762992 53.06860923 -0.24486363 57.11105728 -0.24586678 C59.0495569 -0.25007404 60.98805683 -0.2625286 62.92644882 -0.28338432 C65.63903978 -0.3102465 68.34984387 -0.30548914 71.0625 -0.29296875 C71.86267548 -0.30780304 72.66285095 -0.32263733 73.48727417 -0.33792114 C77.51773866 -0.28495629 79.43617932 0.13355223 82.66677856 2.62120056 C85.26281626 6.11735826 85.28093864 8.04187448 84.66064453 12.30639648 C82.90049322 15.49143218 82.16173537 16.13936621 78.66064453 17.30639648 C75.93397188 17.41811308 73.23218776 17.47406266 70.50488281 17.48339844 C69.67366913 17.48996964 68.84245544 17.49654083 67.98605347 17.50331116 C65.23435374 17.5230282 62.4827085 17.53470198 59.73095703 17.54467773 C58.79114864 17.54875326 57.85134026 17.55282879 56.88305283 17.55702782 C51.91064423 17.57787977 46.93826317 17.5921864 41.96582031 17.6015625 C36.82864786 17.61263706 31.69190735 17.64705149 26.55488777 17.6867342 C22.60520619 17.71286538 18.6556282 17.72125112 14.70586777 17.72484398 C12.81203157 17.72971744 10.91820022 17.741353 9.02444839 17.75988197 C6.37434748 17.78420364 3.72537343 17.78332157 1.07519531 17.77636719 C0.29372131 17.78917725 -0.48775269 17.8019873 -1.29290771 17.81518555 C-4.96194909 17.78010055 -7.14815447 17.42306522 -10.30667114 15.49577332 C-13.08660682 12.50154215 -13.26736306 10.33797158 -13.33935547 6.30639648 C-11.20296464 -0.28080858 -6.00738191 0.00496496 0 0 Z " fill="#0F5FBD" transform="translate(385.33935546875,359.693603515625)"/>
<path d="M0 0 C1.27608124 -0.01248528 1.27608124 -0.01248528 2.57794189 -0.02522278 C5.39461828 -0.04934896 8.21106322 -0.05809801 11.02783203 -0.06469727 C12.98454865 -0.07366152 14.94126456 -0.08278332 16.89797974 -0.09205627 C21.00199043 -0.10855588 25.10591944 -0.11624817 29.20996094 -0.11914062 C34.46833496 -0.1245258 39.72594127 -0.16220734 44.98409843 -0.20788479 C49.02644655 -0.23762992 53.06860923 -0.24486363 57.11105728 -0.24586678 C59.0495569 -0.25007404 60.98805683 -0.2625286 62.92644882 -0.28338432 C65.63903978 -0.3102465 68.34984387 -0.30548914 71.0625 -0.29296875 C71.86267548 -0.30780304 72.66285095 -0.32263733 73.48727417 -0.33792114 C77.51773866 -0.28495629 79.43617932 0.13355223 82.66677856 2.62120056 C85.26281626 6.11735826 85.28093864 8.04187448 84.66064453 12.30639648 C82.90049322 15.49143218 82.16173537 16.13936621 78.66064453 17.30639648 C75.93397188 17.41811308 73.23218776 17.47406266 70.50488281 17.48339844 C69.67366913 17.48996964 68.84245544 17.49654083 67.98605347 17.50331116 C65.23435374 17.5230282 62.4827085 17.53470198 59.73095703 17.54467773 C58.79114864 17.54875326 57.85134026 17.55282879 56.88305283 17.55702782 C51.91064423 17.57787977 46.93826317 17.5921864 41.96582031 17.6015625 C36.82864786 17.61263706 31.69190735 17.64705149 26.55488777 17.6867342 C22.60520619 17.71286538 18.6556282 17.72125112 14.70586777 17.72484398 C12.81203157 17.72971744 10.91820022 17.741353 9.02444839 17.75988197 C6.37434748 17.78420364 3.72537343 17.78332157 1.07519531 17.77636719 C0.29372131 17.78917725 -0.48775269 17.8019873 -1.29290771 17.81518555 C-4.96194909 17.78010055 -7.14815447 17.42306522 -10.30667114 15.49577332 C-13.08660682 12.50154215 -13.26736306 10.33797158 -13.33935547 6.30639648 C-11.20296464 -0.28080858 -6.00738191 0.00496496 0 0 Z " fill="#0F5FBD" transform="translate(385.33935546875,188.693603515625)"/>
<path d="M0 0 C0.82175217 -0.00525696 1.64350433 -0.01051392 2.49015808 -0.01593018 C5.19871184 -0.02910295 7.90667493 -0.02040183 10.61523438 -0.01025391 C12.5018322 -0.01227543 14.38842926 -0.01518752 16.27502441 -0.01895142 C20.22590588 -0.02337108 24.17658365 -0.01695521 28.12744141 -0.00292969 C33.18829818 0.01416196 38.24867764 0.00431886 43.30951691 -0.01364708 C47.20432116 -0.02449456 51.09901251 -0.02103414 54.99382019 -0.0132637 C56.85971636 -0.01126437 58.72562282 -0.01371161 60.59150696 -0.02070236 C63.20060327 -0.02833269 65.80892969 -0.01669069 68.41796875 0 C69.18694992 -0.00607269 69.95593109 -0.01214539 70.74821472 -0.0184021 C75.2339336 0.03468146 78.14766261 0.59959444 81.70898438 3.38818359 C83.2736967 6.51760825 83.40600395 9.99900583 82.70898438 13.38818359 C81.21740723 15.48522949 81.21740723 15.48522949 78.70898438 17.38818359 C75.73176618 17.78272498 73.12489206 17.93545812 70.1484375 17.90576172 C69.28621078 17.912771 68.42398407 17.91978027 67.53562927 17.92700195 C64.68683625 17.94460048 61.83903742 17.93295271 58.99023438 17.91943359 C57.0101299 17.92212798 55.03002671 17.92600995 53.04992676 17.93103027 C48.90050659 17.93692784 44.7514309 17.92835397 40.60205078 17.90966797 C35.28200105 17.88687837 29.96275846 17.90000005 24.64273834 17.92395782 C20.55407627 17.93840876 16.4656057 17.93381303 12.37693787 17.92344666 C10.41531784 17.92077743 8.45368045 17.92405601 6.49208069 17.93336487 C3.75076207 17.94351882 1.01075232 17.92804586 -1.73046875 17.90576172 C-2.5420192 17.91385864 -3.35356964 17.92195557 -4.18971252 17.93029785 C-7.78480372 17.87612833 -9.86407921 17.71178454 -12.7713623 15.50817871 C-14.56690476 13.00330395 -15.14079851 11.46763454 -15.29101562 8.38818359 C-14.53251018 5.20246071 -13.80734899 3.79375326 -11.2232666 1.76400757 C-7.45114072 -0.0058891 -4.08140181 -0.03223109 0 0 Z " fill="#0F5FBD" transform="translate(128.291015625,331.61181640625)"/>
<path d="M0 0 C1.26145088 -0.01248528 1.26145088 -0.01248528 2.54838562 -0.02522278 C5.33259694 -0.04934772 8.1165741 -0.05809786 10.90087891 -0.06469727 C12.83517529 -0.07366162 14.76947094 -0.08278343 16.70376587 -0.09205627 C20.76069831 -0.10855555 24.81754812 -0.11624811 28.87451172 -0.11914062 C34.07235542 -0.12452573 39.26942243 -0.16220703 44.46704674 -0.20788479 C48.46307204 -0.2376312 52.45890976 -0.24486365 56.45503616 -0.24586678 C58.37120751 -0.2500738 60.28737917 -0.26252742 62.20344162 -0.28338432 C64.88490612 -0.31024922 67.56456327 -0.30548843 70.24609375 -0.29296875 C71.03691849 -0.30780304 71.82774323 -0.32263733 72.64253235 -0.33792114 C76.6532861 -0.28461159 78.53739638 0.13977557 81.74502563 2.62510681 C83.75244141 5.30639648 83.75244141 5.30639648 84.37744141 8.80639648 C83.57494576 13.30037212 82.33856684 14.52357764 78.75244141 17.30639648 C75.73608102 17.79595928 73.28831554 17.982187 70.27783203 17.9375 C69.43657272 17.9446553 68.59531342 17.95181061 67.7285614 17.95918274 C64.95471475 17.97605684 62.18248728 17.95667534 59.40869141 17.93530273 C57.47725287 17.93613155 55.54581441 17.93859143 53.61437988 17.94261169 C49.56920098 17.94546881 45.52457604 17.93077686 41.47949219 17.90332031 C36.29741768 17.86923776 31.11633365 17.8752566 25.93421173 17.89398289 C21.9467139 17.90455748 17.95944606 17.89561086 13.9719696 17.88059807 C12.06142358 17.87541918 10.1508535 17.8758945 8.24031067 17.88214302 C5.56869969 17.88760078 2.89850081 17.86720281 0.22705078 17.83984375 C-0.56063187 17.84636963 -1.34831451 17.85289551 -2.15986633 17.85961914 C-5.85690883 17.79532474 -8.04938464 17.42993928 -11.21472168 15.45664978 C-13.82591435 12.69463497 -14.24755859 11.08998695 -14.24755859 7.30639648 C-11.11596032 0.41688028 -6.97688592 0.00583407 0 0 Z " fill="#0F5FBD" transform="translate(386.24755859375,287.693603515625)"/>
<path d="M0 0 C0.82175217 -0.00525696 1.64350433 -0.01051392 2.49015808 -0.01593018 C5.19871184 -0.02910295 7.90667493 -0.02040183 10.61523438 -0.01025391 C12.5018322 -0.01227543 14.38842926 -0.01518752 16.27502441 -0.01895142 C20.22590588 -0.02337108 24.17658365 -0.01695521 28.12744141 -0.00292969 C33.18829818 0.01416196 38.24867764 0.00431886 43.30951691 -0.01364708 C47.20432116 -0.02449456 51.09901251 -0.02103414 54.99382019 -0.0132637 C56.85971636 -0.01126437 58.72562282 -0.01371161 60.59150696 -0.02070236 C63.20060327 -0.02833269 65.80892969 -0.01669069 68.41796875 0 C69.18694992 -0.00607269 69.95593109 -0.01214539 70.74821472 -0.0184021 C75.2339336 0.03468146 78.14766261 0.59959444 81.70898438 3.38818359 C83.2736967 6.51760825 83.40600395 9.99900583 82.70898438 13.38818359 C81.21740723 15.48522949 81.21740723 15.48522949 78.70898438 17.38818359 C75.73176618 17.78272498 73.12489206 17.93545812 70.1484375 17.90576172 C69.28621078 17.912771 68.42398407 17.91978027 67.53562927 17.92700195 C64.68683625 17.94460048 61.83903742 17.93295271 58.99023438 17.91943359 C57.0101299 17.92212798 55.03002671 17.92600995 53.04992676 17.93103027 C48.90050659 17.93692784 44.7514309 17.92835397 40.60205078 17.90966797 C35.28200105 17.88687837 29.96275846 17.90000005 24.64273834 17.92395782 C20.55407627 17.93840876 16.4656057 17.93381303 12.37693787 17.92344666 C10.41531784 17.92077743 8.45368045 17.92405601 6.49208069 17.93336487 C3.75076207 17.94351882 1.01075232 17.92804586 -1.73046875 17.90576172 C-2.5420192 17.91385864 -3.35356964 17.92195557 -4.18971252 17.93029785 C-7.78480372 17.87612833 -9.86407921 17.71178454 -12.7713623 15.50817871 C-14.56690476 13.00330395 -15.14079851 11.46763454 -15.29101562 8.38818359 C-14.53251018 5.20246071 -13.80734899 3.79375326 -11.2232666 1.76400757 C-7.45114072 -0.0058891 -4.08140181 -0.03223109 0 0 Z " fill="#0F5FBD" transform="translate(128.291015625,215.61181640625)"/>
<path d="M0 0 C0.80781921 0.00090637 1.61563843 0.00181274 2.44793701 0.00274658 C3.72379921 -0.00732925 3.72379921 -0.00732925 5.0254364 -0.01760864 C7.84756252 -0.03666269 10.66945168 -0.04051681 13.49163818 -0.04266357 C15.44978433 -0.04908731 17.40792951 -0.05581535 19.36607361 -0.06283569 C23.47606633 -0.07482767 27.58597489 -0.07851464 31.69598389 -0.07733154 C36.96212826 -0.07712846 42.22773229 -0.10441066 47.49374866 -0.13887596 C51.54038469 -0.16111897 55.58689026 -0.16516985 59.63358116 -0.16411209 C61.57485501 -0.16647274 63.5161322 -0.17532228 65.45734596 -0.19077682 C68.17464544 -0.21038044 70.8907748 -0.20462065 73.60809326 -0.19256592 C74.40983978 -0.20380493 75.2115863 -0.21504395 76.03762817 -0.22662354 C79.8171986 -0.1840315 82.00093515 0.15286221 85.22337341 2.19863892 C87.22210693 4.29327393 87.22210693 4.29327393 87.81585693 6.29327393 C87.62065136 10.45765942 87.45081884 13.30372586 84.22210693 16.29327393 C80.47427648 17.54255074 76.97137255 17.45690867 73.06634521 17.47027588 C72.23513153 17.47684708 71.40391785 17.48341827 70.54751587 17.4901886 C67.79581614 17.50990564 65.0441709 17.52157942 62.29241943 17.53155518 C61.35261105 17.5356307 60.41280266 17.53970623 59.44451523 17.54390526 C54.47210663 17.56475722 49.49972557 17.57906384 44.52728271 17.58843994 C39.39011026 17.5995145 34.25336975 17.63392894 29.11635017 17.67361164 C25.16666859 17.69974282 21.2170906 17.70812856 17.26733017 17.71172142 C15.37349397 17.71659488 13.47966262 17.72823044 11.5859108 17.74675941 C8.93580989 17.77108108 6.28683583 17.77019901 3.63665771 17.76324463 C2.85518372 17.77605469 2.07370972 17.78886475 1.26855469 17.80206299 C-2.42271258 17.76676545 -4.5797643 17.41667976 -7.74130249 15.44749451 C-10.35479762 12.68304835 -10.77789307 11.08024676 -10.77789307 7.29327393 C-8.11104326 1.70558861 -6.21540854 0.07203732 0 0 Z " fill="#0F5FBD" transform="translate(123.77789306640625,359.70672607421875)"/>
<path d="M0 0 C0.80781921 0.00090637 1.61563843 0.00181274 2.44793701 0.00274658 C3.72379921 -0.00732925 3.72379921 -0.00732925 5.0254364 -0.01760864 C7.84756252 -0.03666269 10.66945168 -0.04051681 13.49163818 -0.04266357 C15.44978433 -0.04908731 17.40792951 -0.05581535 19.36607361 -0.06283569 C23.47606633 -0.07482767 27.58597489 -0.07851464 31.69598389 -0.07733154 C36.96212826 -0.07712846 42.22773229 -0.10441066 47.49374866 -0.13887596 C51.54038469 -0.16111897 55.58689026 -0.16516985 59.63358116 -0.16411209 C61.57485501 -0.16647274 63.5161322 -0.17532228 65.45734596 -0.19077682 C68.17464544 -0.21038044 70.8907748 -0.20462065 73.60809326 -0.19256592 C74.40983978 -0.20380493 75.2115863 -0.21504395 76.03762817 -0.22662354 C79.8171986 -0.1840315 82.00093515 0.15286221 85.22337341 2.19863892 C87.22210693 4.29327393 87.22210693 4.29327393 87.81585693 6.29327393 C87.62065136 10.45765942 87.45081884 13.30372586 84.22210693 16.29327393 C80.47427648 17.54255074 76.97137255 17.45690867 73.06634521 17.47027588 C72.23513153 17.47684708 71.40391785 17.48341827 70.54751587 17.4901886 C67.79581614 17.50990564 65.0441709 17.52157942 62.29241943 17.53155518 C61.35261105 17.5356307 60.41280266 17.53970623 59.44451523 17.54390526 C54.47210663 17.56475722 49.49972557 17.57906384 44.52728271 17.58843994 C39.39011026 17.5995145 34.25336975 17.63392894 29.11635017 17.67361164 C25.16666859 17.69974282 21.2170906 17.70812856 17.26733017 17.71172142 C15.37349397 17.71659488 13.47966262 17.72823044 11.5859108 17.74675941 C8.93580989 17.77108108 6.28683583 17.77019901 3.63665771 17.76324463 C2.85518372 17.77605469 2.07370972 17.78886475 1.26855469 17.80206299 C-2.42271258 17.76676545 -4.5797643 17.41667976 -7.74130249 15.44749451 C-10.35479762 12.68304835 -10.77789307 11.08024676 -10.77789307 7.29327393 C-8.11104326 1.70558861 -6.21540854 0.07203732 0 0 Z " fill="#0F5FBD" transform="translate(123.77789306640625,188.70672607421875)"/>
<path d="M0 0 C0.84111328 -0.00846954 1.68222656 -0.01693909 2.54882812 -0.02566528 C5.32770938 -0.0490538 8.10603755 -0.05005702 10.88500977 -0.04882812 C12.81787844 -0.05592849 14.750745 -0.06362731 16.68360901 -0.07189941 C20.73460754 -0.08534841 24.78541117 -0.08691106 28.83642578 -0.08105469 C34.02643371 -0.07515764 39.2155065 -0.1057484 44.40533352 -0.14617157 C48.39708999 -0.17202712 52.38862063 -0.17492794 56.3804493 -0.17127991 C58.29381727 -0.17297311 60.20719546 -0.18263486 62.12048149 -0.20042419 C64.79710265 -0.22257236 67.47182258 -0.21293401 70.1484375 -0.1953125 C70.93769119 -0.20857574 71.72694489 -0.22183899 72.54011536 -0.23550415 C76.54534573 -0.17426782 78.42832138 0.25662529 81.63050842 2.73962402 C83.63891602 5.41992188 83.63891602 5.41992188 84.26391602 8.91992188 C83.46142037 13.41389751 82.22504145 14.63710303 78.63891602 17.41992188 C75.62255563 17.90948467 73.17479015 18.09571239 70.16430664 18.05102539 C69.32304733 18.05818069 68.48178802 18.065336 67.61503601 18.07270813 C64.84118936 18.08958223 62.06896188 18.07020073 59.29516602 18.04882812 C57.36372748 18.04965694 55.43228902 18.05211682 53.50085449 18.05613708 C49.45567559 18.0589942 45.41105065 18.04430225 41.3659668 18.0168457 C36.18389229 17.98276315 31.00280826 17.98878199 25.82068634 18.00750828 C21.83318851 18.01808287 17.84592067 18.00913625 13.85844421 17.99412346 C11.94789819 17.98894457 10.03732811 17.9894199 8.12678528 17.99566841 C5.4551743 18.00112617 2.78497542 17.9807282 0.11352539 17.95336914 C-0.67415726 17.95989502 -1.4618399 17.9664209 -2.27339172 17.97314453 C-5.99224125 17.90847089 -8.16050697 17.54690804 -11.33215332 15.53892517 C-13.71081004 13.05467003 -14.27759556 11.84294716 -14.36108398 8.41992188 C-13.62041977 5.59193123 -12.82747283 3.90507105 -10.80162048 1.79772949 C-7.29321911 -0.18294244 -3.92397759 -0.01453297 0 0 Z " fill="#0F5FBD" transform="translate(127.361083984375,287.580078125)"/>
<path d="M0 0 C0.86222672 -0.00700928 1.72445343 -0.01401855 2.61280823 -0.02124023 C5.46160125 -0.03883876 8.30940008 -0.027191 11.15820312 -0.01367188 C13.1383076 -0.01636626 15.11841079 -0.02024823 17.09851074 -0.02526855 C21.24793091 -0.03116612 25.3970066 -0.02259225 29.54638672 -0.00390625 C34.86643645 0.01888335 40.18567904 0.00576167 45.50569916 -0.01819611 C49.59436123 -0.03264704 53.6828318 -0.02805131 57.77149963 -0.01768494 C59.73311966 -0.01501571 61.69475705 -0.01829429 63.65635681 -0.02760315 C66.39767543 -0.0377571 69.13768518 -0.02228414 71.87890625 0 C73.09623192 -0.01214539 73.09623192 -0.01214539 74.33815002 -0.02453613 C77.95803284 0.03000694 80.01982475 0.1976614 82.94128418 2.42492676 C85.01866204 5.32662061 85.00819753 7.15032825 84.83398438 10.61523438 C84.22557205 13.54886608 82.82798798 14.8114818 80.43945312 16.51757812 C76.77429607 17.73929714 73.39182279 17.67306637 69.57495117 17.67871094 C68.77460449 17.68367584 67.97425781 17.68864075 67.1496582 17.6937561 C64.50015403 17.70836877 61.85070974 17.71517846 59.20117188 17.72070312 C57.35895282 17.7264556 55.51673379 17.73221332 53.67451477 17.73797607 C49.81010662 17.74848371 45.94571926 17.75432784 42.08129883 17.7578125 C37.13486971 17.76329477 32.1887162 17.78731808 27.24237347 17.81578445 C23.43591007 17.83442923 19.62951279 17.83961743 15.82300758 17.84114838 C13.9997895 17.8441716 12.17657249 17.85218899 10.35339928 17.86533356 C7.79943392 17.88243155 5.2461384 17.8805047 2.69213867 17.87402344 C1.56739891 17.88784561 1.56739891 17.88784561 0.41993713 17.90194702 C-4.31147662 17.86442681 -7.53550021 17.00543219 -11.56054688 14.51757812 C-13.56282132 11.99297121 -13.57052753 10.75711381 -13.43554688 7.51757812 C-11.33148421 0.303649 -6.79799192 -0.06782428 0 0 Z " fill="#0F5FBD" transform="translate(385.560546875,260.482421875)"/>
<path d="M0 0 C0.86193466 -0.0065712 1.72386932 -0.0131424 2.61192322 -0.01991272 C5.47126344 -0.03966351 8.33055113 -0.0513113 11.18994141 -0.0612793 C12.1650127 -0.06535482 13.140084 -0.06943035 14.14470291 -0.07362938 C19.303986 -0.09449615 24.46324242 -0.10879613 29.62255859 -0.11816406 C34.9582686 -0.12923927 40.29356279 -0.16365027 45.6291256 -0.20333576 C49.72631622 -0.2294454 53.82340685 -0.23785078 57.92067337 -0.24144554 C59.88790322 -0.24632492 61.85512822 -0.25797712 63.82227707 -0.27648354 C66.57326248 -0.30075847 69.32315967 -0.29993159 72.07421875 -0.29296875 C72.88891129 -0.30577881 73.70360382 -0.31858887 74.54298401 -0.33178711 C78.17361565 -0.29823885 80.23687952 -0.1497655 83.1703186 2.08137512 C85.24374205 4.98550859 85.23525295 6.80965992 85.06103516 10.2746582 C84.45262283 13.20828991 83.05503877 14.47090562 80.66650391 16.17700195 C77.00134685 17.39872097 73.61887358 17.3324902 69.80200195 17.33813477 C69.00165527 17.34309967 68.20130859 17.34806458 67.37670898 17.35317993 C64.72720481 17.3677926 62.07776052 17.37460229 59.42822266 17.38012695 C57.58600361 17.38587943 55.74378457 17.39163715 53.90156555 17.3973999 C50.0371574 17.40790753 46.17277004 17.41375166 42.30834961 17.41723633 C37.36192049 17.4227186 32.41576698 17.44674191 27.46942425 17.47520828 C23.66296085 17.49385306 19.85656357 17.49904126 16.05005836 17.5005722 C14.22684028 17.50359543 12.40362327 17.51161281 10.58045006 17.52475739 C8.0264847 17.54185537 5.47318918 17.53992853 2.91918945 17.53344727 C1.79444969 17.54726944 1.79444969 17.54726944 0.64698792 17.56137085 C-4.07392688 17.5239339 -7.3661833 16.76580808 -11.33349609 14.17700195 C-12.89599609 10.86450195 -12.89599609 10.86450195 -13.33349609 7.17700195 C-10.54515502 -0.35151895 -7.33754477 0.02409792 0 0 Z " fill="#0F5FBD" transform="translate(126.33349609375,260.822998046875)"/>
<path d="M0 0 C7.59 0 15.18 0 23 0 C23 7.59 23 15.18 23 23 C15.41 23 7.82 23 0 23 C0 15.41 0 7.82 0 0 Z " fill="#0F5FBD" transform="translate(317,343)"/>
<path d="M0 0 C7.59 0 15.18 0 23 0 C23 7.59 23 15.18 23 23 C15.41 23 7.82 23 0 23 C0 15.41 0 7.82 0 0 Z " fill="#0F5FBD" transform="translate(58,343)"/>
<path d="M0 0 C7.59 0 15.18 0 23 0 C23 7.59 23 15.18 23 23 C15.41 23 7.82 23 0 23 C0 15.41 0 7.82 0 0 Z " fill="#0F5FBD" transform="translate(317,271)"/>
<path d="M0 0 C7.59 0 15.18 0 23 0 C23 7.26 23 14.52 23 22 C15.41 22 7.82 22 0 22 C0 14.74 0 7.48 0 0 Z " fill="#0F5FBD" transform="translate(58,272)"/>
<path d="M0 0 C7.59 0 15.18 0 23 0 C23 7.26 23 14.52 23 22 C15.41 22 7.82 22 0 22 C0 14.74 0 7.48 0 0 Z " fill="#0F5FBD" transform="translate(317,200)"/>
<path d="M0 0 C7.59 0 15.18 0 23 0 C23 7.26 23 14.52 23 22 C15.41 22 7.82 22 0 22 C0 14.74 0 7.48 0 0 Z " fill="#0F5FBD" transform="translate(58,200)"/>
<path d="M0 0 C3.5625 0.375 3.5625 0.375 5.5625 2.0625 C6.84050253 5.01788086 6.64301862 6.36498383 5.5625 9.375 C4.3125 11.1875 4.3125 11.1875 2.5625 12.375 C-0.7600955 12.97136329 -2.01205503 12.66609393 -4.8125 10.75 C-6.4375 8.375 -6.4375 8.375 -6.3125 5.25 C-5.05218932 1.1089792 -4.34449835 0.47394527 0 0 Z " fill="#0F5FBD" transform="translate(385.4375,115.625)"/>
<path d="M0 0 C3.5625 0.375 3.5625 0.375 5.5625 2.0625 C6.84050253 5.01788086 6.64301862 6.36498383 5.5625 9.375 C4.3125 11.1875 4.3125 11.1875 2.5625 12.375 C-0.7600955 12.97136329 -2.01205503 12.66609393 -4.8125 10.75 C-6.4375 8.375 -6.4375 8.375 -6.3125 5.25 C-5.05218932 1.1089792 -4.34449835 0.47394527 0 0 Z " fill="#0F5FBD" transform="translate(126.4375,115.625)"/>
</svg>
